<?xml version="1.0" standalone="no"?>
<!DOCTYPE svg PUBLIC "-//W3C//DTD SVG 20010904//EN"
 "http://www.w3.org/TR/2001/REC-SVG-20010904/DTD/svg10.dtd">
<svg version="1.0" xmlns="http://www.w3.org/2000/svg"
 width="225.000000pt" height="225.000000pt" viewBox="0 0 225.000000 225.000000"
 preserveAspectRatio="xMidYMid meet">

<g transform="translate(0.000000,225.000000) scale(0.100000,-0.100000)"
fill="#000000" stroke="none">
<path d="M0 1125 l0 -1125 1125 0 1125 0 0 1125 0 1125 -1125 0 -1125 0 0
-1125z m1140 995 c0 -13 -7 -20 -20 -20 -13 0 -20 7 -20 20 0 13 7 20 20 20
13 0 20 -7 20 -20z m108 -37 c3 -23 27 -37 44 -27 6 4 5 10 -3 15 -11 7 -11 9
1 9 22 0 60 -29 60 -46 0 -18 -14 -18 -30 1 -10 12 -16 13 -27 3 -13 -10 -12
-14 3 -25 15 -11 16 -13 2 -13 -11 0 -15 -6 -11 -20 4 -16 8 -18 19 -9 8 6 14
18 14 25 0 27 21 14 27 -16 7 -36 22 -48 34 -29 9 15 11 -7 14 -186 1 -104 -3
-115 -42 -115 -13 0 -23 -5 -23 -11 0 -6 8 -8 19 -4 17 5 21 0 26 -39 6 -36 0
-70 -29 -168 -40 -137 -63 -188 -83 -188 -8 0 -13 -12 -13 -36 0 -35 1 -36 88
-76 86 -40 88 -40 180 -35 l92 5 0 -99 0 -99 -27 0 c-35 0 -924 99 -940 105
-9 3 -13 34 -13 106 0 55 4 99 9 97 4 -1 28 -28 53 -58 24 -30 50 -55 57 -55
7 0 21 23 30 50 28 79 39 95 66 95 31 0 31 14 5 98 -11 35 -20 72 -20 83 0 28
27 23 44 -8 18 -36 64 -79 73 -69 4 4 2 10 -5 15 -31 19 -62 76 -62 114 0 35
-2 38 -16 26 -14 -11 -22 -7 -60 33 -46 49 -54 68 -29 68 8 0 15 -6 15 -14 0
-7 7 -19 15 -26 18 -15 20 1 3 19 -11 11 -9 13 9 8 13 -3 26 -1 29 4 6 10 34
-14 34 -30 0 -6 12 -11 26 -11 22 0 25 3 20 23 -4 16 1 28 15 40 13 11 18 25
14 36 -4 14 1 20 20 25 14 4 23 11 20 16 -4 6 1 13 9 16 29 11 16 26 -19 22
-37 -4 -42 1 -24 19 14 14 1 36 -17 29 -8 -3 -24 -1 -36 4 -14 5 -17 9 -8 10
10 1 9 4 -5 10 -18 7 -17 8 9 15 22 6 32 4 42 -10 11 -15 18 -15 47 -6 43 15
57 41 23 41 -14 0 -32 3 -42 7 -13 5 -16 3 -11 -10 4 -11 1 -17 -8 -17 -18 0
-20 34 -2 47 6 6 29 13 49 17 21 4 44 13 51 21 18 18 104 18 111 0 5 -13 30
-15 42 -2 4 3 1 13 -6 22 -7 8 -9 15 -4 15 5 0 9 20 9 45 0 48 -16 65 -41 44
-12 -10 -13 -8 -8 7 5 18 4 18 -11 -1 -17 -20 -17 -20 -11 5 6 21 5 23 -6 10
-13 -16 -48 -16 -48 1 0 5 -7 9 -15 9 -8 0 -15 6 -15 14 0 19 55 18 91 0 15
-7 29 -11 32 -8 3 3 13 7 24 8 10 2 17 11 17 20 -3 26 30 15 34 -11z m-223
-43 c17 -19 17 -19 -9 -7 -14 7 -26 15 -26 20 0 13 17 7 35 -13z m-103 -26
c-2 -16 -7 -33 -12 -38 -11 -11 -23 30 -15 55 10 30 31 17 27 -17z m90 -24
c16 -14 25 -17 39 -9 11 5 19 14 19 19 0 6 5 10 10 10 6 0 10 -7 10 -15 0 -8
5 -15 10 -15 6 0 10 4 10 10 0 5 6 7 14 4 8 -3 17 -1 21 5 10 17 35 13 29 -4
-4 -8 -14 -15 -24 -15 -10 0 -21 -7 -24 -16 -4 -10 -16 -15 -33 -14 -54 4 -68
1 -56 -11 9 -9 9 -15 0 -24 -13 -14 -48 -7 -62 12 -17 22 -48 5 -42 -23 5 -27
-7 -31 -30 -9 -12 12 -18 13 -29 4 -10 -8 -18 -9 -25 -2 -7 7 6 17 40 32 28
12 51 25 51 29 0 9 38 52 46 52 3 0 14 -9 26 -20z m164 -64 c2 -14 0 -15 -12
-5 -17 14 -19 32 -2 27 6 -2 12 -12 14 -22z m-321 -174 c6 -13 19 -22 31 -22
27 0 96 -29 71 -30 -10 0 -20 -7 -23 -15 -4 -8 -11 -12 -17 -8 -6 4 -8 -2 -5
-15 4 -14 2 -19 -8 -15 -8 3 -11 14 -8 32 5 25 4 27 -30 26 -25 -1 -36 3 -36
13 0 7 -9 16 -21 19 -11 3 -18 11 -15 18 2 7 0 17 -6 23 -7 7 1 8 24 3 20 -4
37 -15 43 -29z m-48 -78 l28 -25 -27 16 c-15 9 -31 14 -37 11 -5 -3 -11 1 -15
9 -9 24 20 18 51 -11z m68 -23 c3 -5 1 -12 -4 -15 -5 -3 -11 1 -15 9 -6 16 9
21 19 6z m-15 -889 c107 -53 107 -211 0 -264 -98 -50 -216 22 -214 131 1 61
28 106 79 131 49 25 89 25 135 2z m396 -26 c3 -14 4 -70 2 -125 -2 -56 -1
-101 2 -101 3 0 30 56 61 123 l57 122 53 3 54 2 55 -122 c30 -67 57 -125 58
-130 2 -4 -19 -8 -46 -8 -41 0 -51 3 -55 20 -4 17 -14 20 -65 20 -52 0 -62 -3
-67 -20 -6 -18 -15 -20 -106 -20 l-99 0 0 95 0 95 -50 0 -50 0 0 -95 0 -95
-50 0 -50 0 0 130 0 130 145 0 145 0 6 -24z m-443 -313 c2 -10 30 -71 61 -135
38 -82 51 -118 41 -118 -8 0 -23 20 -34 45 l-20 45 -66 0 -66 0 -20 -45 c-11
-25 -26 -45 -34 -45 -16 0 104 269 121 270 7 0 14 -8 17 -17z m159 -83 c3 -88
6 -102 28 -125 32 -34 91 -35 125 0 23 22 25 31 25 125 0 82 3 100 15 100 12
0 15 -17 15 -90 0 -94 -10 -130 -46 -161 -49 -43 -139 -27 -168 30 -18 33 -23
221 -7 221 5 0 10 -45 13 -100z m408 90 c0 -6 -28 -10 -63 -10 -60 0 -64 -1
-61 -22 1 -13 3 -38 3 -55 l1 -33 60 0 c33 0 60 -4 60 -10 0 -6 -26 -10 -59
-10 -58 0 -59 -1 -65 -31 -13 -68 -12 -69 59 -69 37 0 65 -4 65 -10 0 -6 -32
-10 -75 -10 l-75 0 0 135 0 135 75 0 c43 0 75 -4 75 -10z m154 0 c39 -14 54
-55 35 -89 -15 -26 -15 -29 7 -49 24 -20 32 -65 16 -88 -14 -22 -52 -34 -106
-34 l-56 0 0 135 0 135 39 0 c22 0 51 -4 65 -10z"/>
<path d="M1225 1968 c3 -13 7 -29 7 -35 2 -21 18 -15 18 6 0 27 -10 51 -22 51
-6 0 -7 -9 -3 -22z"/>
<path d="M1265 1932 c3 -3 0 -11 -6 -19 -15 -17 12 -18 29 -1 9 9 15 9 24 0 7
-7 21 -12 32 -12 20 0 20 0 0 18 -16 14 -94 29 -79 14z"/>
<path d="M1057 1860 c-3 -11 -1 -20 4 -20 5 0 9 2 9 4 0 2 3 11 6 20 3 9 2 16
-4 16 -5 0 -12 -9 -15 -20z"/>
<path d="M1109 1873 c-10 -2 -16 -14 -16 -29 0 -29 20 -27 26 2 2 10 8 22 15
26 12 8 2 9 -25 1z"/>
<path d="M1160 1659 c-31 -6 -32 -7 -7 -8 46 -2 30 -18 -18 -17 -25 1 -49 -4
-53 -10 -4 -7 -16 -14 -27 -17 -11 -4 5 -5 35 -3 30 2 63 7 73 11 14 6 17 2
17 -19 l0 -25 45 30 c35 24 43 34 35 44 -13 16 -55 22 -100 14z"/>
<path d="M1187 1460 c-24 -28 -22 -30 22 -30 22 0 42 -4 46 -9 3 -6 18 -6 37
1 31 11 31 11 9 20 -13 4 -27 6 -31 3 -17 -11 -59 6 -53 21 8 21 -10 17 -30
-6z"/>
<path d="M1172 1389 c-17 -26 -10 -34 16 -20 12 6 34 11 51 11 17 0 31 4 31 9
0 4 -12 8 -27 8 -16 0 -35 2 -43 6 -10 5 -20 0 -28 -14z"/>
<path d="M1195 1340 c3 -5 17 -10 30 -10 13 0 27 5 30 10 4 6 -8 10 -30 10
-22 0 -34 -4 -30 -10z"/>
<path d="M1003 1285 c27 -25 69 -58 94 -75 l45 -31 39 25 c21 15 43 26 49 26
5 0 10 5 10 10 0 6 -3 10 -6 10 -46 0 -162 28 -208 51 -33 16 -62 29 -65 29
-3 -1 16 -21 42 -45z"/>
<path d="M955 1960 c-3 -5 -1 -10 4 -10 6 0 11 5 11 10 0 6 -2 10 -4 10 -3 0
-8 -4 -11 -10z"/>
<path d="M761 681 c-43 -43 -10 -131 42 -115 31 9 37 16 43 55 8 60 -47 98
-85 60z"/>
<path d="M1408 635 l-17 -45 39 0 39 0 -17 45 c-9 25 -19 45 -22 45 -3 0 -13
-20 -22 -45z"/>
<path d="M768 344 l-27 -59 30 -3 c16 -2 40 -2 53 0 l24 3 -27 59 -27 59 -26
-59z"/>
<path d="M1450 370 c0 -52 2 -54 50 -50 35 3 50 18 50 51 0 33 -23 49 -69 49
-30 0 -31 -1 -31 -50z"/>
<path d="M1450 240 l0 -50 50 0 c42 0 52 4 66 25 15 23 15 27 0 50 -14 21 -24
25 -66 25 l-50 0 0 -50z"/>
</g>
</svg>
