<?xml version="1.0" standalone="no"?>
<!DOCTYPE svg PUBLIC "-//W3C//DTD SVG 20010904//EN"
 "http://www.w3.org/TR/2001/REC-SVG-20010904/DTD/svg10.dtd">
<svg version="1.0" xmlns="http://www.w3.org/2000/svg"
 width="300.000000pt" height="292.000000pt" viewBox="0 0 300.000000 292.000000"
 preserveAspectRatio="xMidYMid meet">

<g transform="translate(0.000000,292.000000) scale(0.100000,-0.100000)"
fill="#000000" stroke="none">
<path d="M1328 2887 c-91 -77 -43 -207 77 -207 121 0 170 146 73 214 -35 25
-117 21 -150 -7z m118 -40 c48 -42 22 -119 -40 -119 -64 0 -91 81 -40 121 34
27 47 26 80 -2z"/>
<path d="M1596 2888 c-6 -28 -25 -202 -22 -205 1 -1 37 -5 80 -9 l78 -7 -4 24
c-3 21 -9 24 -52 27 l-48 3 6 57 c4 31 9 74 12 95 5 35 4 37 -20 37 -19 0 -27
-6 -30 -22z"/>
<path d="M1115 2865 c-48 -25 -65 -52 -65 -106 0 -40 5 -55 29 -81 26 -30 35
-33 84 -33 45 0 60 5 81 24 31 30 32 38 5 46 -13 4 -27 1 -38 -9 -40 -36 -111
1 -111 59 0 32 42 67 75 63 34 -4 59 27 35 42 -22 14 -61 12 -95 -5z"/>
<path d="M1806 2863 c-3 -10 -16 -59 -30 -110 l-24 -92 52 -15 c84 -25 100
-24 104 1 3 19 -4 24 -42 34 -25 6 -46 16 -46 23 0 6 9 45 20 86 15 57 16 76
7 82 -20 13 -35 9 -41 -9z"/>
<path d="M1976 2727 c-21 -50 -41 -97 -43 -104 -5 -12 115 -73 142 -73 11 0
25 21 25 36 0 2 -22 13 -50 25 -48 21 -64 44 -37 55 7 2 30 -3 51 -11 32 -14
40 -14 47 -3 15 22 10 29 -36 49 -32 14 -43 24 -38 35 6 17 25 15 81 -7 28
-12 34 -12 42 1 5 8 10 18 10 21 0 6 -136 69 -149 69 -3 0 -23 -42 -45 -93z"/>
<path d="M810 2750 c-13 -8 -10 -18 18 -69 l33 -61 -68 26 c-95 37 -99 38
-121 22 -19 -12 -17 -17 37 -110 31 -54 59 -98 62 -98 3 0 14 6 24 14 18 13
17 15 -13 65 -18 28 -32 54 -32 57 0 8 19 2 102 -29 56 -21 69 -23 84 -13 16
12 14 20 -37 109 -30 53 -58 97 -64 97 -5 0 -17 -5 -25 -10z"/>
<path d="M2184 2646 c-29 -29 -34 -41 -34 -79 0 -50 24 -88 70 -112 51 -26 76
-20 109 29 l30 44 -38 25 c-34 23 -41 24 -52 11 -9 -11 -8 -18 5 -33 15 -16
15 -19 1 -31 -13 -11 -20 -10 -43 7 -36 26 -40 68 -11 99 30 32 72 31 97 -1
23 -29 62 -34 62 -7 -1 41 -59 82 -118 82 -37 0 -50 -6 -78 -34z"/>
<path d="M1380 2534 c-79 -28 -114 -35 -210 -41 l-115 -6 -83 -74 c-59 -52
-114 -89 -190 -127 l-107 -54 -44 -96 c-34 -75 -61 -116 -122 -184 l-77 -86
-6 -106 c-5 -86 -13 -126 -45 -222 l-40 -118 38 -107 c32 -91 39 -126 45 -223
l7 -114 76 -85 c57 -64 88 -110 124 -186 l48 -100 103 -50 c76 -37 124 -70
188 -126 l85 -76 113 -6 c96 -5 130 -11 221 -43 l107 -38 109 38 c93 32 127
39 221 43 l112 6 85 76 c63 56 113 90 188 126 l101 50 53 105 c36 72 75 130
123 184 77 87 82 101 82 223 0 58 8 94 41 187 l40 116 -40 116 c-33 93 -41
129 -41 187 0 123 -6 137 -82 223 -48 54 -86 112 -123 186 l-54 106 -103 50
c-78 37 -124 68 -186 124 l-83 75 -113 6 c-94 6 -132 13 -215 42 -55 19 -108
35 -118 35 -10 -1 -61 -17 -113 -36z m186 -28 c55 -19 65 -25 49 -31 -123 -48
-107 -46 -179 -22 -36 11 -66 24 -66 28 0 6 98 45 121 48 3 1 36 -10 75 -23z
m-163 -96 c-19 -17 -110 -40 -157 -40 l-51 1 48 44 47 44 61 -21 c33 -11 57
-24 52 -28z m352 3 l50 -46 -70 5 c-40 2 -89 13 -115 24 l-45 20 60 21 c33 12
62 22 65 22 3 0 27 -20 55 -46z m-595 -13 c-55 -49 -55 -49 -125 -49 l-70 0
55 49 c55 49 55 49 125 50 l70 0 -55 -50z m811 0 l54 -49 -70 0 -70 0 -53 49
-53 50 68 0 c69 0 69 0 124 -50z m-343 -54 c2 -2 -27 -14 -65 -27 l-67 -22
-68 23 c-38 13 -67 25 -65 26 1 2 32 14 67 27 l65 24 64 -24 c36 -13 67 -25
69 -27z m-359 -19 c-2 -2 -26 -24 -54 -49 -48 -43 -54 -46 -125 -52 l-75 -7
52 50 c30 28 65 52 80 54 35 5 128 8 122 4z m572 -5 c35 -7 137 -87 126 -99
-3 -3 -35 -2 -72 2 -61 7 -70 11 -118 56 l-52 48 40 0 c22 0 56 -3 76 -7z
m-841 -53 c-38 -35 -127 -89 -145 -89 -3 0 8 27 25 59 32 64 36 66 130 69 l35
1 -45 -40z m415 12 l79 -28 85 28 c47 16 88 29 93 29 4 0 37 -27 73 -59 l65
-59 95 -7 96 -7 43 -86 43 -86 84 -41 84 -40 3 -75 c3 -106 6 -113 73 -187 33
-36 58 -72 55 -79 -3 -7 -17 -47 -32 -89 l-27 -75 32 -86 c35 -97 39 -83 -46
-177 l-52 -57 -3 -92 -3 -92 -85 -42 -85 -41 -42 -87 -43 -86 -52 -1 c-112 -1
-142 -11 -208 -72 -34 -31 -65 -57 -70 -57 -5 0 -46 13 -90 29 l-80 30 -91
-31 -90 -30 -27 23 c-15 13 -45 40 -67 61 -39 36 -42 37 -138 44 l-99 7 -38
83 -38 83 -85 42 c-95 47 -97 50 -97 171 0 56 -1 59 -64 130 l-64 72 31 88 32
88 -32 88 -31 89 64 72 c63 70 64 73 64 129 0 120 2 124 97 170 l84 42 39 84
38 83 98 8 98 7 65 59 c36 32 70 59 76 59 5 0 46 -13 90 -29z m627 23 c43 -6
46 -9 71 -60 15 -30 27 -56 27 -59 0 -14 -103 43 -145 80 -47 42 -48 45 -24
45 14 0 46 -3 71 -6z m270 -161 c14 -32 24 -59 23 -61 -1 -1 -29 9 -62 23 -55
24 -61 30 -91 91 -18 35 -32 67 -32 69 0 3 31 -10 68 -29 64 -32 71 -39 94
-93z m-1500 56 c-24 -55 -31 -63 -84 -90 -31 -16 -62 -29 -68 -29 -5 0 4 29
22 64 27 55 38 67 82 89 74 38 78 35 48 -34z m94 -97 c-32 -64 -38 -69 -96
-95 -34 -14 -60 -23 -58 -19 2 4 14 33 27 63 21 51 29 59 85 87 33 17 64 31
69 31 4 1 -8 -30 -27 -67z m1311 -57 c19 -36 31 -65 28 -65 -2 0 -34 14 -69
32 -60 29 -67 37 -90 89 -15 31 -26 59 -26 62 0 4 28 -7 62 -23 58 -28 65 -35
95 -95z m-1487 11 c0 -21 -45 -100 -78 -136 l-41 -45 -1 56 c0 30 6 62 13 71
18 23 107 68 107 54z m1594 -23 l54 -26 4 -64 c2 -35 1 -63 -2 -63 -18 0 -120
149 -120 175 0 9 7 6 64 -22z m-1759 -188 c-4 -29 -20 -55 -56 -95 l-49 -55 6
75 c7 71 10 78 53 129 l46 54 3 -34 c2 -18 1 -52 -3 -74z m1960 -38 c4 -23 5
-56 3 -73 l-3 -31 -46 51 c-44 49 -46 55 -53 126 l-6 75 49 -53 c38 -40 51
-62 56 -95z m-1835 20 c-5 -71 -7 -76 -52 -126 l-48 -53 0 69 c0 69 0 69 51
126 28 31 51 57 52 57 1 0 0 -33 -3 -73z m1712 -106 l4 -74 -53 57 -53 57 0
69 0 69 49 -52 c48 -51 49 -53 53 -126z m93 -49 l38 -43 -18 -59 c-10 -33 -21
-60 -25 -60 -3 0 -13 21 -22 48 -20 56 -35 182 -20 167 5 -5 26 -29 47 -53z
m-1968 -107 l-24 -69 -21 63 c-24 70 -24 67 32 129 l31 33 3 -43 c2 -26 -7
-71 -21 -113z m-53 -145 c0 -25 -9 -65 -20 -89 l-20 -45 -22 61 c-27 74 -27
78 0 149 l22 58 20 -45 c11 -24 20 -64 20 -89z m124 63 l22 -68 -23 -64 c-26
-69 -29 -69 -57 13 -18 54 -18 55 3 120 11 37 24 66 27 66 3 0 16 -30 28 -67z
m1851 -126 c-12 -37 -25 -64 -29 -60 -4 4 -16 34 -28 65 -23 61 -22 63 18 163
l12 30 25 -65 25 -65 -23 -68z m137 122 l21 -59 -21 -59 c-12 -33 -24 -63 -28
-66 -3 -3 -16 23 -28 59 l-22 66 22 66 c12 36 25 62 28 59 4 -3 16 -33 28 -66z
m-2039 -299 l6 -65 -28 25 c-15 14 -35 37 -46 51 -18 26 -18 28 3 89 l21 63
19 -49 c11 -27 22 -78 25 -114z m1968 90 l18 -60 -39 -44 c-21 -24 -43 -45
-47 -45 -5 -1 -6 25 -2 57 7 59 34 152 45 152 4 0 15 -27 25 -60z m-1825 -258
l5 -74 -52 57 -53 58 0 70 0 69 48 -53 c45 -51 47 -55 52 -127z m1711 101 c-6
-71 -8 -74 -54 -120 l-47 -48 0 68 0 68 52 55 c28 30 52 53 53 52 1 -2 -1 -36
-4 -75z m-1835 -118 c3 -22 4 -55 2 -74 l-3 -33 -46 54 c-43 50 -46 57 -53
128 l-6 75 50 -55 c36 -40 51 -66 56 -95z m1959 39 c-4 -31 -18 -55 -55 -95
l-50 -54 6 75 c7 71 10 78 53 127 l46 52 3 -31 c2 -18 1 -51 -3 -74z m-1818
-192 c14 -29 23 -55 20 -58 -9 -9 -104 44 -111 61 -3 9 -6 40 -6 68 l0 51 35
-34 c20 -19 48 -59 62 -88z m1675 55 l-4 -64 -55 -27 c-30 -15 -57 -25 -60
-22 -12 12 96 176 116 176 3 0 5 -28 3 -63z m-1539 -78 c20 -9 40 -35 63 -81
19 -37 32 -68 29 -68 -2 0 -33 14 -67 31 -63 31 -74 45 -117 151 -3 9 26 -2
92 -33z m1375 -23 c-28 -58 -36 -66 -94 -94 -40 -20 -64 -27 -64 -19 1 6 14
36 29 66 24 47 36 58 87 82 32 15 62 28 66 28 4 1 -6 -28 -24 -63z m-1406
-153 c14 -32 24 -59 23 -61 -1 -1 -29 9 -62 23 -55 24 -61 30 -91 91 -18 35
-32 67 -32 69 0 3 31 -10 68 -29 64 -32 71 -39 94 -93z m1500 56 c-25 -57 -30
-63 -94 -95 -37 -19 -68 -32 -68 -29 0 2 14 34 32 69 29 59 37 67 87 90 31 14
59 26 63 26 3 0 -5 -27 -20 -61z m-1392 -70 c32 -17 73 -46 91 -66 l34 -36
-49 7 c-27 3 -57 6 -67 6 -13 0 -28 19 -49 60 -17 33 -27 60 -24 60 3 0 32
-14 64 -31z m1220 26 c0 -2 -12 -29 -27 -60 -20 -41 -33 -55 -49 -55 -12 0
-43 -3 -70 -6 l-49 -5 45 41 c54 49 150 104 150 85z m-1009 -43 c35 -7 138
-86 126 -98 -3 -3 -35 -3 -71 1 -59 7 -69 11 -118 56 l-53 48 40 0 c22 0 56
-3 76 -7z m794 -41 c-49 -48 -52 -49 -125 -56 l-75 -7 46 47 c48 49 81 62 159
64 l45 1 -50 -49z m-357 -52 c34 -11 62 -22 62 -24 0 -2 -30 -13 -67 -26 l-67
-22 -69 22 c-38 13 -67 25 -64 27 7 7 111 42 128 43 8 1 43 -8 77 -20z m-408
-79 l55 -49 -70 0 c-70 0 -70 0 -125 49 l-55 50 70 0 c70 -1 70 -1 125 -50z
m810 0 c-55 -50 -55 -50 -124 -50 l-70 0 55 50 c54 49 54 49 124 49 l70 0 -55
-49z m-618 12 c26 -10 50 -20 53 -24 3 -3 -21 -15 -53 -26 l-60 -20 -48 44
-49 43 55 1 c30 0 76 -8 102 -18z m404 -22 c-24 -22 -52 -40 -62 -39 -35 1
-120 36 -104 43 65 26 103 35 152 35 l58 1 -44 -40z m-198 -42 c34 -12 62 -25
62 -29 0 -4 -28 -17 -62 -28 l-63 -21 -62 22 c-35 12 -63 24 -63 28 0 4 87 40
120 49 3 1 33 -9 68 -21z"/>
<path d="M1260 1865 c0 -22 4 -26 23 -23 14 2 22 10 22 23 0 13 -8 21 -22 23
-19 3 -23 -1 -23 -23z"/>
<path d="M1077 1873 c-4 -3 -7 -51 -7 -105 0 -98 0 -98 25 -98 23 0 25 4 25
40 0 40 0 40 38 40 44 0 72 23 72 61 0 32 -10 46 -43 58 -31 12 -100 15 -110
4z m92 -42 c21 -13 5 -41 -24 -41 -18 0 -25 5 -25 18 0 31 21 41 49 23z"/>
<path d="M1260 1745 c0 -68 2 -75 20 -75 18 0 20 7 20 75 0 68 -2 75 -20 75
-18 0 -20 -7 -20 -75z"/>
<path d="M1360 1800 c-26 -26 -27 -90 -2 -113 30 -27 112 -20 112 8 0 21 -19
28 -35 15 -16 -13 -45 -7 -45 10 0 5 20 10 45 10 43 0 45 1 45 28 0 57 -78 84
-120 42z m70 -25 c11 -13 8 -15 -20 -15 -28 0 -31 2 -20 15 7 8 16 15 20 15 4
0 13 -7 20 -15z"/>
<path d="M1520 1744 c0 -67 2 -74 19 -74 17 0 20 8 23 53 3 45 6 52 26 55 14
2 22 10 22 22 0 15 -8 18 -45 18 l-45 0 0 -74z"/>
<path d="M1651 1801 c-28 -28 -28 -84 -1 -111 36 -36 139 -20 109 16 -6 8 -22
11 -38 8 -18 -4 -32 0 -41 11 -21 25 0 50 41 50 27 0 34 4 34 20 0 30 -76 34
-104 6z"/>
<path d="M1807 1802 c-49 -53 -18 -132 51 -132 50 0 70 13 53 34 -10 12 -16
13 -32 3 -15 -9 -22 -8 -36 6 -16 16 -15 17 35 17 48 0 52 2 52 23 0 56 -86
90 -123 49z m71 -30 c2 -7 -7 -12 -23 -12 -24 0 -26 2 -15 15 14 17 31 16 38
-3z"/>
<path d="M930 1590 c0 -7 197 -10 570 -10 373 0 570 3 570 10 0 7 -197 10
-570 10 -373 0 -570 -3 -570 -10z"/>
<path d="M1090 1415 l0 -105 51 0 c89 0 139 39 139 108 0 60 -60 102 -145 102
l-45 0 0 -105z m122 38 c39 -35 13 -94 -42 -96 l-35 -2 -3 58 -3 57 32 0 c18
0 41 -7 51 -17z"/>
<path d="M1326 1438 c-22 -31 -20 -84 4 -108 23 -23 77 -27 104 -7 16 12 16
14 2 26 -13 11 -19 11 -31 1 -16 -13 -45 -7 -45 10 0 5 20 10 45 10 43 0 45 1
45 28 0 38 -28 62 -73 62 -26 0 -40 -6 -51 -22z m74 -23 c11 -13 8 -15 -14
-15 -25 0 -33 10 -19 23 10 11 19 8 33 -8z"/>
<path d="M1490 1384 c0 -67 2 -74 20 -74 17 0 20 7 20 49 0 49 18 79 40 66 5
-3 10 2 10 14 0 16 -7 19 -45 19 l-45 0 0 -74z"/>
<path d="M1620 1440 c-12 -12 -20 -33 -20 -55 0 -47 29 -75 78 -75 44 0 67 17
51 37 -8 9 -16 10 -29 3 -20 -11 -50 -4 -50 11 0 5 23 9 51 9 51 0 51 0 44 28
-3 15 -14 35 -22 45 -22 23 -78 22 -103 -3z m74 -25 c4 -11 -1 -15 -19 -15
-24 0 -32 10 -18 23 11 12 31 8 37 -8z"/>
<path d="M1790 1438 c-46 -50 -11 -128 58 -128 44 0 67 17 51 37 -8 9 -16 10
-29 3 -20 -11 -50 -4 -50 11 0 5 23 9 50 9 39 0 50 4 50 16 0 19 -19 56 -34
66 -23 16 -75 8 -96 -14z m78 -25 c2 -8 -6 -13 -22 -13 -25 0 -33 10 -19 24
10 10 36 3 41 -11z"/>
<path d="M935 1250 c-4 -7 187 -10 564 -10 374 0 571 3 571 10 0 14 -1126 14
-1135 0z"/>
<path d="M1410 1060 c0 -103 1 -110 20 -110 19 0 20 7 20 110 0 103 -1 110
-20 110 -19 0 -20 -7 -20 -110z"/>
<path d="M1490 1061 l0 -109 61 -1 c46 0 64 4 80 20 23 23 25 76 3 108 -13 19
-24 22 -55 19 l-39 -4 0 38 c0 34 -3 38 -25 38 l-25 0 0 -109z m104 -13 c20
-28 4 -61 -27 -56 -25 3 -35 41 -17 64 17 19 26 18 44 -8z"/>
<path d="M1207 1055 l-46 -105 29 0 c19 0 29 6 33 20 4 16 14 20 50 20 37 0
47 -4 52 -20 4 -13 15 -20 32 -20 29 0 30 -8 -24 123 -31 71 -41 87 -59 87
-18 0 -29 -18 -67 -105z m71 -23 c-27 -5 -30 1 -17 34 l11 29 13 -30 c12 -27
12 -30 -7 -33z"/>
<path d="M1686 1092 c-10 -17 10 -30 43 -29 19 1 36 -3 38 -10 3 -9 -7 -13
-30 -13 -34 0 -67 -20 -67 -41 0 -6 5 -19 10 -29 9 -16 21 -19 70 -19 l60 1 0
62 c0 35 -5 67 -12 74 -13 13 -104 17 -112 4z m81 -96 c-6 -17 -47 -20 -47 -3
0 9 6 17 13 20 18 6 38 -4 34 -17z"/>
<path d="M501 2536 c-11 -13 -6 -35 24 -128 21 -62 39 -115 42 -117 2 -3 13 4
24 16 17 16 19 25 10 40 -8 16 -6 24 12 40 49 43 55 45 78 33 18 -10 25 -9 41
8 20 20 20 20 -78 66 -120 57 -137 62 -153 42z m109 -86 c0 -10 -29 -34 -34
-29 -3 2 -8 17 -11 32 -7 27 -7 27 19 16 14 -7 26 -15 26 -19z"/>
<path d="M2391 2473 c-39 -42 -71 -80 -71 -84 0 -4 26 -32 57 -63 54 -51 59
-54 76 -39 17 16 15 19 -24 59 -36 37 -40 45 -29 59 12 14 17 12 49 -20 35
-33 38 -34 54 -18 16 16 15 19 -18 54 -31 31 -34 38 -21 48 12 10 22 6 56 -25
39 -35 42 -36 58 -20 16 16 14 20 -41 72 -32 30 -62 54 -67 54 -4 0 -40 -35
-79 -77z"/>
<path d="M374 2390 c-36 -14 -74 -68 -74 -106 0 -108 115 -163 194 -93 33 28
58 91 43 105 -11 11 -47 -8 -47 -25 0 -24 -41 -61 -69 -61 -28 0 -71 42 -71
71 0 11 14 34 30 49 43 40 40 77 -6 60z"/>
<path d="M2594 2216 c-28 -28 -34 -41 -34 -77 0 -78 50 -128 127 -129 75 0
128 70 109 147 -4 14 -22 41 -41 60 -28 28 -40 33 -80 33 -40 0 -52 -5 -81
-34z m135 -42 c28 -36 26 -68 -5 -93 -34 -27 -62 -27 -91 1 -29 27 -29 65 -1
95 29 31 71 30 97 -3z"/>
<path d="M208 2175 c-6 -14 -9 -27 -7 -28 2 -2 46 -28 98 -57 89 -52 94 -53
107 -35 18 24 15 27 -99 93 l-88 51 -11 -24z"/>
<path d="M152 2048 c-11 -13 -30 -45 -41 -71 l-21 -48 23 -8 c12 -5 60 -25
106 -45 46 -20 85 -35 86 -34 1 2 6 13 9 26 6 19 2 25 -28 37 -52 22 -46 41
16 48 50 6 68 18 68 45 0 11 -11 12 -50 7 -35 -5 -50 -3 -50 5 0 20 -48 60
-73 60 -13 0 -33 -10 -45 -22z m66 -58 c1 -9 -3 -23 -10 -33 -19 -26 -54 0
-43 32 8 25 48 26 53 1z"/>
<path d="M2760 1972 c-52 -19 -97 -36 -99 -38 -2 -2 -1 -14 3 -28 6 -25 7 -25
47 -11 23 8 43 15 45 15 2 0 11 -18 20 -40 17 -43 21 -45 44 -30 12 7 12 14 2
44 -7 20 -10 40 -7 46 14 23 34 7 50 -40 18 -53 22 -57 47 -37 15 11 14 19
-11 81 -14 38 -31 70 -36 72 -6 1 -53 -14 -105 -34z"/>
<path d="M47 1778 c-10 -40 -17 -76 -17 -80 0 -6 175 -49 209 -52 9 -1 20 24
32 74 23 95 23 90 -5 90 -21 0 -26 -7 -36 -50 -10 -43 -15 -50 -36 -50 -22 0
-24 3 -17 28 12 48 9 76 -9 80 -13 3 -20 -8 -29 -42 -9 -36 -16 -46 -31 -46
-17 0 -20 5 -14 30 3 17 9 44 12 60 6 27 4 30 -18 30 -22 0 -26 -7 -41 -72z"/>
<path d="M2802 1654 c-28 -19 -52 -65 -52 -98 0 -14 7 -44 17 -67 l16 -41 56
6 c30 4 57 8 59 11 2 2 1 22 -3 44 -5 31 -11 41 -26 41 -14 0 -19 -7 -19 -25
0 -29 -34 -36 -44 -9 -18 47 17 104 64 104 10 0 29 -9 44 -21 27 -22 35 -66
15 -86 -8 -8 -5 -14 10 -23 28 -14 39 -7 47 35 8 46 -12 100 -46 125 -34 24
-106 27 -138 4z"/>
<path d="M10 1573 c1 -21 11 -35 40 -55 22 -15 40 -31 40 -35 0 -5 -20 -20
-45 -35 -33 -20 -45 -34 -45 -51 0 -21 6 -25 46 -31 26 -3 78 -6 115 -6 67 0
69 1 69 25 0 24 -2 25 -65 25 -36 0 -65 3 -65 8 0 4 18 17 40 30 22 12 40 26
40 31 0 5 -18 21 -40 36 -22 15 -40 30 -40 33 0 3 32 2 70 -2 l70 -6 0 30 0
30 -115 0 -115 0 0 -27z"/>
<path d="M2760 1376 c0 -22 5 -25 43 -28 23 -2 42 -7 42 -13 0 -5 -21 -21 -47
-35 -39 -21 -48 -30 -48 -52 l0 -28 45 22 45 22 23 -22 c62 -58 127 -5 127
103 l0 42 -77 7 c-138 11 -153 9 -153 -18z m180 -65 c0 -29 -14 -42 -37 -34
-7 3 -13 18 -13 34 0 24 4 29 25 29 21 0 25 -5 25 -29z"/>
<path d="M117 1267 c-83 -53 -97 -65 -95 -87 3 -22 12 -26 121 -53 65 -16 120
-27 123 -24 12 12 -9 47 -31 53 -18 5 -24 15 -30 52 -6 40 -4 48 15 62 22 16
25 50 5 56 -5 2 -54 -25 -108 -59z m43 -62 c0 -20 -5 -25 -23 -25 -36 0 -40
12 -10 32 35 22 33 23 33 -7z"/>
<path d="M2722 1110 c-19 -79 -19 -79 0 -86 25 -8 27 -5 42 52 12 50 22 59 44
45 11 -6 11 -17 2 -51 -9 -34 -9 -45 2 -51 22 -14 32 -5 43 42 6 24 14 43 18
42 30 -7 31 -10 20 -59 -13 -54 -10 -64 16 -64 15 0 23 17 38 79 l20 79 -103
26 c-57 14 -107 26 -112 26 -5 0 -19 -36 -30 -80z"/>
<path d="M278 980 c-16 -10 -15 -14 7 -62 18 -39 21 -54 12 -60 -24 -15 -35
-7 -51 36 -16 42 -19 44 -41 34 l-24 -11 19 -38 c24 -46 25 -55 5 -63 -11 -4
-22 9 -40 44 -26 52 -31 55 -54 41 -12 -8 -8 -22 19 -85 l33 -75 31 13 c107
46 176 80 176 87 0 15 -62 149 -69 149 -3 0 -14 -5 -23 -10z"/>
<path d="M2653 915 c-30 -71 -30 -76 -13 -85 26 -14 25 -15 49 40 21 48 42 63
57 39 3 -6 -2 -29 -12 -51 -15 -34 -16 -41 -3 -49 24 -15 30 -11 46 31 11 27
22 40 35 40 23 0 23 -8 -2 -64 -19 -46 -19 -46 1 -57 12 -6 22 -9 24 -7 13 12
62 144 57 150 -9 8 -190 88 -200 88 -4 0 -21 -34 -39 -75z"/>
<path d="M306 735 c-101 -69 -101 -69 -84 -94 l14 -20 37 24 36 25 26 -37 c28
-41 29 -38 -29 -77 -18 -11 -18 -14 -5 -34 15 -21 16 -21 107 41 51 34 92 67
92 73 0 6 -7 17 -15 24 -11 9 -20 8 -45 -10 -36 -26 -49 -23 -73 19 l-18 30
36 23 c19 13 35 28 35 34 0 11 -20 34 -29 33 -4 0 -41 -24 -85 -54z"/>
<path d="M2566 740 c-32 -29 -55 -88 -41 -109 9 -15 45 0 45 19 0 9 9 29 21
44 26 33 68 34 97 3 30 -31 28 -71 -3 -95 -42 -33 -26 -77 19 -52 33 17 56 62
56 110 0 34 -6 48 -34 76 -29 29 -41 34 -80 34 -36 0 -52 -6 -80 -30z"/>
<path d="M2419 559 c-49 -57 -51 -61 -35 -77 16 -16 20 -14 58 26 37 40 42 42
56 28 15 -14 13 -19 -18 -51 -32 -33 -33 -36 -17 -52 16 -16 19 -15 52 17 26
25 38 31 46 23 9 -9 3 -22 -21 -53 -31 -39 -35 -70 -8 -70 8 0 37 27 66 59
l52 60 -82 75 c-46 42 -86 76 -89 76 -4 0 -31 -27 -60 -61z"/>
<path d="M499 501 l-66 -60 -21 22 c-21 20 -23 20 -39 4 -16 -16 -14 -21 47
-82 60 -61 65 -64 82 -48 18 16 18 17 -4 40 l-22 23 64 65 c54 55 61 66 50 79
-7 9 -15 16 -19 16 -3 0 -36 -27 -72 -59z"/>
<path d="M1260 95 c0 -78 2 -85 20 -85 18 0 20 7 20 85 0 78 -2 85 -20 85 -18
0 -20 -7 -20 -85z"/>
<path d="M1351 166 c-6 -7 -10 -29 -9 -47 1 -19 -2 -42 -6 -51 -17 -38 57 -73
104 -48 26 14 26 136 -1 151 -26 13 -75 11 -88 -5z m65 -27 c10 -17 -13 -36
-27 -22 -12 12 -4 33 11 33 5 0 12 -5 16 -11z m8 -68 c9 -13 -19 -32 -38 -25
-17 6 -20 16 -9 27 9 10 41 9 47 -2z"/>
<path d="M1480 165 c0 -10 11 -15 35 -15 40 0 42 -7 16 -58 -10 -20 -22 -47
-26 -60 -6 -20 -4 -23 15 -20 16 2 29 20 51 71 40 96 40 97 -31 97 -47 0 -60
-3 -60 -15z"/>
<path d="M1622 138 c3 -40 5 -43 33 -46 39 -5 52 -17 36 -36 -10 -11 -18 -13
-31 -6 -10 6 -26 7 -35 4 -14 -6 -14 -8 1 -25 22 -25 69 -24 94 1 23 23 24 29
11 63 -6 16 -21 28 -40 32 -42 9 -39 25 4 25 24 0 35 5 35 15 0 12 -13 15 -56
15 l-55 0 3 -42z"/>
</g>
</svg>
