<?xml version="1.0" standalone="no"?>
<!DOCTYPE svg PUBLIC "-//W3C//DTD SVG 20010904//EN"
 "http://www.w3.org/TR/2001/REC-SVG-20010904/DTD/svg10.dtd">
<svg version="1.0" xmlns="http://www.w3.org/2000/svg"
 width="336.000000pt" height="252.000000pt" viewBox="0 0 336.000000 252.000000"
 preserveAspectRatio="xMidYMid meet">

<g transform="translate(0.000000,252.000000) scale(0.100000,-0.100000)"
fill="#000000" stroke="none">
<path d="M1010 1508 c0 -2 -1 -117 -3 -256 l-2 -252 48 0 47 0 0 98 c0 89 2
100 23 120 32 30 69 36 106 18 44 -23 51 -44 51 -145 l0 -91 45 0 45 0 0 97
c0 121 -20 171 -84 208 -45 26 -135 35 -166 15 -13 -8 -16 5 -20 88 l-5 97
-42 3 c-24 2 -43 2 -43 0z"/>
<path d="M1810 1255 l0 -255 45 0 45 0 0 255 0 255 -45 0 -45 0 0 -255z"/>
<path d="M2370 1440 c-16 -30 4 -60 40 -60 19 0 33 7 40 20 16 30 -4 60 -40
60 -19 0 -33 -7 -40 -20z"/>
<path d="M1535 1331 c-157 -39 -178 -255 -31 -322 70 -32 166 -19 218 28 14
12 15 19 6 30 -24 29 -47 34 -77 18 -17 -8 -43 -15 -59 -15 -29 0 -82 33 -82
51 0 5 53 9 119 9 66 0 122 4 126 9 10 17 -7 91 -29 124 -38 56 -121 85 -191
68z m103 -98 l27 -28 -74 -3 c-40 -2 -75 -1 -77 1 -9 9 8 35 29 45 37 18 67
13 95 -15z"/>
<path d="M618 1313 c-32 -20 -48 -52 -48 -97 0 -75 82 -121 160 -90 76 31 94
112 36 170 -28 28 -41 34 -77 34 -24 0 -56 -8 -71 -17z"/>
<path d="M1950 1327 c0 -1 29 -74 64 -162 l64 -160 48 0 48 0 58 145 c32 80
60 153 64 163 4 14 -1 17 -39 17 l-44 0 -39 -101 c-21 -56 -43 -99 -49 -98 -5
2 -27 47 -48 101 l-39 98 -44 0 c-24 0 -44 -1 -44 -3z"/>
<path d="M2360 1165 l0 -165 50 0 50 0 0 165 0 165 -50 0 -50 0 0 -165z"/>
<path d="M2602 1313 c-71 -35 -114 -123 -92 -189 15 -43 53 -90 91 -109 32
-17 121 -20 150 -5 13 7 19 7 19 0 0 -5 20 -10 45 -10 l45 0 0 165 0 165 -45
0 c-25 0 -45 -4 -45 -10 0 -6 -9 -6 -26 0 -38 15 -105 12 -142 -7z m145 -95
c39 -37 28 -99 -24 -126 -70 -38 -152 29 -122 100 24 58 98 71 146 26z"/>
<path d="M450 1090 c-11 -11 -20 -29 -20 -40 0 -29 36 -60 69 -60 38 0 71 40
71 86 l0 34 -50 0 c-37 0 -55 -5 -70 -20z"/>
</g>
</svg>
