<?xml version="1.0" standalone="no"?>
<!DOCTYPE svg PUBLIC "-//W3C//DTD SVG 20010904//EN"
 "http://www.w3.org/TR/2001/REC-SVG-20010904/DTD/svg10.dtd">
<svg version="1.0" xmlns="http://www.w3.org/2000/svg"
 width="200.000000pt" height="200.000000pt" viewBox="0 0 200.000000 200.000000"
 preserveAspectRatio="xMidYMid meet">

<g transform="translate(0.000000,200.000000) scale(0.100000,-0.100000)"
fill="#000000" stroke="none">
<path d="M931 1583 c-41 -38 -545 -1045 -545 -1089 0 -70 74 -125 138 -104 46
15 67 41 120 148 26 51 62 110 82 131 l35 39 -51 101 -50 101 52 29 c29 17 77
38 108 47 l55 17 118 237 c64 131 117 250 117 265 0 91 -112 140 -179 78z"/>
</g>
</svg>
