<?xml version="1.0" standalone="no"?>
<!DOCTYPE svg PUBLIC "-//W3C//DTD SVG 20010904//EN"
 "http://www.w3.org/TR/2001/REC-SVG-20010904/DTD/svg10.dtd">
<svg version="1.0" xmlns="http://www.w3.org/2000/svg"
 width="500.000000pt" height="500.000000pt" viewBox="0 0 500.000000 500.000000"
 preserveAspectRatio="xMidYMid meet">

<g transform="translate(0.000000,500.000000) scale(0.100000,-0.100000)"
fill="#000000" stroke="none">
<path d="M1146 3225 c-3 -8 -4 -192 -3 -408 2 -370 3 -394 22 -432 23 -46 51
-55 85 -27 22 18 22 18 4 53 -19 33 -22 159 -24 822 0 15 -78 7 -84 -8z"/>
<path d="M551 3163 c-93 -48 -91 -39 -91 -455 l0 -358 24 -6 c13 -3 34 -1 45
6 21 11 21 16 21 355 0 189 3 351 6 360 12 30 65 48 144 48 85 0 136 -19 145
-56 3 -12 4 -78 3 -146 -3 -122 -3 -124 -31 -145 -22 -16 -46 -21 -127 -24
-96 -4 -100 -5 -106 -28 -12 -48 10 -57 119 -51 114 6 179 32 214 86 21 31 23
45 23 181 0 136 -2 150 -22 180 -38 56 -88 75 -208 78 -99 3 -108 2 -159 -25z"/>
<path d="M2680 3038 c-14 -7 -99 -14 -190 -17 -191 -7 -241 -23 -282 -89 -22
-36 -23 -46 -23 -247 0 -310 10 -325 224 -335 119 -6 125 -7 147 -34 16 -18
24 -40 24 -66 0 -90 -22 -100 -229 -100 -151 0 -161 -1 -171 -20 -6 -12 -8
-30 -5 -41 7 -20 13 -20 193 -17 206 3 230 9 272 68 34 47 38 136 11 194 -33
66 -82 87 -227 95 -62 3 -118 11 -124 17 -22 22 -30 89 -30 251 0 180 6 204
55 228 65 30 215 14 241 -26 5 -8 11 -108 14 -224 l5 -210 40 0 40 0 3 209 c2
164 -1 214 -12 236 -16 33 -12 40 21 40 36 0 83 28 83 49 0 19 -30 51 -46 50
-5 0 -20 -5 -34 -11z"/>
<path d="M1622 3026 c-59 -15 -95 -37 -126 -80 -20 -26 -21 -41 -21 -264 0
-229 1 -238 22 -268 13 -18 44 -42 70 -55 41 -20 64 -23 153 -23 88 0 112 4
151 22 58 29 91 83 87 144 -3 43 -3 43 -43 43 l-40 0 -6 -48 c-3 -27 -12 -53
-20 -58 -44 -28 -153 -38 -221 -19 -55 16 -68 41 -68 132 l0 77 43 5 c23 3 87
11 141 16 179 19 216 51 216 192 0 95 -20 135 -83 166 -58 30 -177 38 -255 18z
m171 -77 c61 -17 77 -39 77 -109 0 -69 -18 -96 -72 -104 -41 -7 -208 -26 -225
-26 -18 0 -18 180 0 203 28 40 141 58 220 36z"/>
<path d="M3178 3027 c-66 -19 -97 -43 -119 -90 -17 -38 -19 -69 -19 -310 l0
-267 26 -12 c18 -9 30 -9 42 -1 15 9 18 43 22 287 5 275 5 278 28 296 47 39
177 38 226 -1 l26 -20 0 -274 c0 -268 0 -275 21 -285 11 -7 32 -9 45 -6 l24 6
0 263 c0 289 2 301 60 329 70 36 201 12 221 -39 5 -13 9 -143 9 -288 l0 -265
24 -6 c13 -3 34 -1 45 6 20 10 21 17 21 268 0 145 -5 273 -10 294 -14 49 -61
95 -113 110 -89 26 -230 12 -277 -28 -13 -11 -24 -9 -66 12 -62 31 -168 40
-236 21z"/>
<path d="M4137 2998 c-3 -12 -2 -29 3 -39 8 -15 28 -18 134 -21 108 -3 128 -6
153 -24 26 -20 28 -26 31 -102 l3 -80 -58 -7 c-234 -25 -264 -34 -296 -95 -23
-45 -19 -175 6 -214 34 -51 62 -61 189 -65 129 -3 137 0 124 54 -6 25 -8 25
-104 25 -124 0 -134 6 -140 88 -4 54 -2 63 20 85 25 24 33 26 194 43 l61 6 5
-114 c3 -85 9 -123 24 -153 22 -47 53 -56 84 -25 20 20 20 21 3 53 -15 27 -18
64 -21 247 -1 118 -5 225 -7 237 -3 13 -19 38 -36 58 -43 49 -105 65 -250 65
-111 0 -117 -1 -122 -22z"/>
<path d="M2833 2449 c-20 -7 -23 -16 -23 -58 0 -44 2 -49 26 -55 14 -4 35 -4
45 -1 17 6 20 14 17 57 -3 56 -23 73 -65 57z"/>
<path d="M412 2108 c4 -10 182 -14 836 -16 735 -2 832 0 832 13 0 13 -98 15
-836 15 -664 0 -835 -3 -832 -12z"/>
<path d="M2740 2105 c0 -13 110 -15 930 -15 820 0 930 2 930 15 0 13 -110 15
-930 15 -820 0 -930 -2 -930 -15z"/>
<path d="M3957 1983 c-4 -3 -7 -54 -7 -112 0 -129 10 -151 71 -151 59 0 79 25
79 100 0 47 -4 64 -20 80 -21 21 -90 29 -90 10 0 -5 13 -10 29 -10 41 0 53
-20 49 -86 -3 -64 -18 -81 -61 -70 l-27 6 0 120 c0 110 -5 132 -23 113z"/>
<path d="M3060 1859 c0 -125 6 -139 65 -139 54 0 60 18 8 22 l-38 3 -3 108
c-2 86 -6 107 -17 107 -12 0 -15 -19 -15 -101z"/>
<path d="M4453 1920 c-26 -11 -39 -50 -25 -77 6 -10 31 -24 57 -31 42 -11 46
-15 43 -40 -3 -24 -7 -27 -38 -27 -27 0 -37 5 -45 23 -13 29 -25 28 -25 -3 0
-29 26 -45 72 -45 50 0 70 19 66 60 -3 32 -7 36 -53 51 -42 13 -50 20 -50 40
0 21 5 24 38 27 32 3 37 0 37 -17 0 -12 7 -21 15 -21 19 0 20 34 2 49 -20 16
-69 22 -94 11z"/>
<path d="M3500 1910 c0 -5 15 -10 34 -10 71 0 89 -61 21 -70 -55 -8 -65 -16
-65 -55 0 -24 6 -38 19 -45 24 -12 68 -13 75 -1 7 10 -17 21 -45 21 -11 0 -22
7 -25 15 -9 24 15 45 52 45 31 0 33 -2 36 -42 2 -24 9 -43 17 -46 10 -4 12 1
8 19 -4 13 -7 52 -7 86 0 76 -14 93 -76 93 -24 0 -44 -4 -44 -10z"/>
</g>
</svg>
